<svg width="49" height="49" fill="none" xmlns="http://www.w3.org/2000/svg"><mask id="a" style="mask-type:alpha" maskUnits="userSpaceOnUse" x="0" y="0" width="49" height="49"><path fill="#D9D9D9" d="M0 0h49v49H0z"/></mask><g mask="url(#a)"><path d="M15.313 33.688h12.25v-2.042h-12.25v2.041Zm0-8.167h18.375v-2.042H15.313v2.042Zm0-8.167h18.375v-2.041H15.313v2.041Zm-3.828 23.48c-.953 0-1.744-.315-2.373-.944-.63-.63-.945-1.422-.945-2.374V11.484c0-.952.315-1.743.945-2.372.63-.63 1.42-.945 2.373-.945h26.031c.953 0 1.744.315 2.374.945.63.629.944 1.42.944 2.372v26.032c0 .952-.315 1.744-.944 2.374-.63.629-1.421.943-2.374.943H11.485Zm0-2.042h26.031c.34 0 .638-.128.892-.384a1.22 1.22 0 0 0 .384-.892V11.484c0-.34-.128-.637-.384-.892a1.22 1.22 0 0 0-.892-.384H11.485c-.34 0-.638.128-.893.384a1.22 1.22 0 0 0-.383.892v26.032c0 .34.128.637.383.892.255.256.552.384.893.384Z" fill="#1C1B1F"/></g></svg>