<svg width="243" height="30" fill="none" xmlns="http://www.w3.org/2000/svg"><path d="M11.91.96c1.653 0 3.04.213 4.16.64 1.146.427 2.306 1.12 3.48 2.08l-2.08 2.44c-1.68-1.36-3.454-2.04-5.32-2.04-2.294 0-4.147.88-5.56 2.64-1.387 1.76-2.08 4.587-2.08 8.48 0 3.787.693 6.587 2.08 8.4 1.386 1.787 3.226 2.68 5.52 2.68 1.173 0 2.2-.2 3.08-.6.88-.4 1.813-.96 2.8-1.68l1.88 2.4c-.854.88-1.947 1.613-3.28 2.2-1.334.587-2.867.88-4.6.88-2.24 0-4.24-.547-6-1.64-1.734-1.12-3.094-2.747-4.08-4.88C.95 20.8.47 18.213.47 15.2s.506-5.587 1.52-7.72C3.003 5.32 4.376 3.693 6.11 2.6 7.843 1.507 9.776.96 11.91.96ZM43.971 29h-3.8V15.56c0-3.12.174-6.413.52-9.88L29.532 29h-4.88V1.44h3.8v13.44c0 3.733-.173 7.067-.52 10l11.28-23.44h4.76V29ZM70.317 1.44V29h-3.8V4.64h-8.64l-1.32 11.88c-.373 3.307-.813 5.787-1.32 7.44-.507 1.627-1.187 2.827-2.04 3.6-.853.747-2.107 1.387-3.76 1.92l-.92-2.96c1.013-.373 1.76-.853 2.24-1.44.507-.587.893-1.467 1.16-2.64.267-1.173.547-3.053.84-5.64l1.8-15.36h15.76ZM93.004 29l-2.08-6.92h-10.44L78.404 29h-3.84l8.84-27.56h4.8l8.8 27.56h-4Zm-11.6-10h8.6l-4.28-14.4-4.32 14.4Z" fill="#121212"/><path d="M130.88 1.36V29h-5.28V5.52h-7.04l-1.2 10.52c-.373 3.253-.84 5.76-1.4 7.52-.533 1.733-1.307 3.053-2.32 3.96-.987.907-2.4 1.6-4.24 2.08l-1.24-3.88c.987-.373 1.72-.867 2.2-1.48.48-.64.84-1.533 1.08-2.68.267-1.173.547-3.027.84-5.56L114 1.36h16.88Zm26.489-.6c3.68 0 6.547 1.253 8.6 3.76 2.08 2.507 3.12 6.053 3.12 10.64 0 3.013-.467 5.6-1.4 7.76-.933 2.16-2.28 3.813-4.04 4.96-1.76 1.147-3.853 1.72-6.28 1.72-3.413 0-6.12-1.107-8.12-3.32-1.973-2.24-3.107-5.4-3.4-9.48h-3.2V29h-5.28V1.36h5.28v11.2h3.32c.453-3.787 1.653-6.693 3.6-8.72 1.973-2.053 4.573-3.08 7.8-3.08Zm0 24.8c2 0 3.52-.827 4.56-2.48 1.04-1.653 1.56-4.293 1.56-7.92 0-3.6-.52-6.227-1.56-7.88-1.013-1.653-2.533-2.48-4.56-2.48-2 0-3.52.84-4.56 2.52-1.04 1.68-1.56 4.347-1.56 8 0 6.827 2.04 10.24 6.12 10.24Zm25.24-14.12c3.44 0 6.093.72 7.96 2.16 1.893 1.44 2.84 3.573 2.84 6.4 0 3.04-.974 5.307-2.92 6.8-1.947 1.467-4.574 2.2-7.88 2.2h-8.56V1.36h16.24l-.56 4.12h-10.4v5.96h3.28Zm-.16 13.6c1.733 0 3.066-.373 4-1.12.933-.773 1.4-2.053 1.4-3.84 0-1.653-.467-2.867-1.4-3.64-.907-.773-2.28-1.16-4.12-1.16h-3v9.76h3.12Zm28.675-10.68c1.894.347 3.414 1.027 4.56 2.04 1.174 1.013 1.76 2.56 1.76 4.64 0 2.88-1.013 4.933-3.04 6.16-2.026 1.2-4.866 1.8-8.52 1.8h-8.32V1.36h7.24c7.627 0 11.44 2.347 11.44 7.04 0 1.627-.493 2.96-1.48 4-.986 1.013-2.2 1.667-3.64 1.96Zm-8.28-9.12v7.48h3.24c1.467 0 2.627-.32 3.48-.96.854-.667 1.28-1.64 1.28-2.92 0-1.333-.453-2.267-1.36-2.8-.88-.533-2.266-.8-4.16-.8h-2.48Zm3.08 19.8c1.947 0 3.427-.293 4.44-.88 1.04-.587 1.56-1.693 1.56-3.32 0-1.573-.493-2.707-1.48-3.4-.96-.693-2.28-1.04-3.96-1.04h-3.64v8.64h3.08ZM242.495 29h-5.24V17.24c0-3.413.254-6.893.76-10.44l-9.4 22.2h-6.52V1.36h5.24v11.88c0 2.213-.066 4.053-.2 5.52-.133 1.467-.32 3.067-.56 4.8l9.56-22.2h6.36V29Z" fill="url(#a)"/><defs><linearGradient id="a" x1="122" y1="-8" x2="122" y2="40" gradientUnits="userSpaceOnUse"><stop stop-color="#875F46"/><stop offset=".495" stop-color="#E6DC87"/><stop offset="1" stop-color="#A5804F"/></linearGradient></defs></svg>