<svg width="270" height="30" fill="none" xmlns="http://www.w3.org/2000/svg"><path d="M11.718.96c1.653 0 3.04.213 4.16.64 1.147.427 2.307 1.12 3.48 2.08l-2.08 2.44c-1.68-1.36-3.453-2.04-5.32-2.04-2.293 0-4.147.88-5.56 2.64-1.387 1.76-2.08 4.587-2.08 8.48 0 3.787.693 6.587 2.08 8.4 1.387 1.787 3.227 2.68 5.52 2.68 1.174 0 2.2-.2 3.08-.6.88-.4 1.813-.96 2.8-1.68l1.88 2.4c-.853.88-1.947 1.613-3.28 2.2-1.333.587-2.867.88-4.6.88-2.24 0-4.24-.547-6-1.64-1.733-1.12-3.093-2.747-4.08-4.88-.96-2.16-1.44-4.747-1.44-7.76s.507-5.587 1.52-7.72c1.013-2.16 2.387-3.787 4.12-4.88S9.585.96 11.718.96ZM43.781 29h-3.8V15.56c0-3.12.173-6.413.52-9.88L29.34 29h-4.88V1.44h3.8v13.44c0 3.733-.173 7.067-.52 10L39.02 1.44h4.76V29ZM70.126 1.44V29h-3.8V4.64h-8.64l-1.32 11.88c-.374 3.307-.814 5.787-1.32 7.44-.507 1.627-1.187 2.827-2.04 3.6-.854.747-2.107 1.387-3.76 1.92l-.92-2.96c1.013-.373 1.76-.853 2.24-1.44.506-.587.893-1.467 1.16-2.64.266-1.173.546-3.053.84-5.64l1.8-15.36h15.76ZM92.813 29l-2.08-6.92h-10.44L78.213 29h-3.84l8.84-27.56h4.8l8.8 27.56h-4Zm-11.6-10h8.6l-4.28-14.4-4.32 14.4Z" fill="#121212"/><path d="M121.448.76c1.68 0 3.147.24 4.4.72 1.254.48 2.48 1.213 3.68 2.2l-2.68 3.12c-1.626-1.307-3.333-1.96-5.12-1.96-2.053 0-3.706.827-4.96 2.48-1.226 1.653-1.84 4.253-1.84 7.8 0 3.467.614 6.04 1.84 7.72 1.227 1.68 2.88 2.52 4.96 2.52 1.094 0 2.067-.187 2.92-.56.854-.4 1.76-.96 2.72-1.68l2.48 3.12c-.933.96-2.12 1.76-3.56 2.4-1.413.64-3 .96-4.76.96-2.4 0-4.52-.56-6.36-1.68-1.84-1.12-3.266-2.76-4.28-4.92-1.013-2.187-1.52-4.813-1.52-7.88 0-3.013.52-5.6 1.56-7.76 1.067-2.16 2.507-3.8 4.32-4.92 1.84-1.12 3.907-1.68 6.2-1.68Zm21.994 0c2.48 0 4.626.56 6.44 1.68 1.813 1.12 3.2 2.76 4.16 4.92.986 2.16 1.48 4.76 1.48 7.8 0 3.013-.494 5.6-1.48 7.76-.987 2.16-2.387 3.813-4.2 4.96-1.814 1.147-3.947 1.72-6.4 1.72-2.48 0-4.627-.56-6.44-1.68-1.814-1.12-3.214-2.76-4.2-4.92-.987-2.16-1.48-4.76-1.48-7.8 0-2.987.493-5.56 1.48-7.72.986-2.187 2.386-3.853 4.2-5 1.84-1.147 3.986-1.72 6.44-1.72Zm0 4.04c-2.134 0-3.76.84-4.88 2.52-1.12 1.653-1.68 4.28-1.68 7.88 0 6.907 2.186 10.36 6.56 10.36 2.133 0 3.746-.827 4.84-2.48 1.12-1.653 1.68-4.293 1.68-7.92 0-3.6-.56-6.227-1.68-7.88-1.094-1.653-2.707-2.48-4.84-2.48Zm30.616 9.56c1.893.347 3.413 1.027 4.56 2.04 1.173 1.013 1.76 2.56 1.76 4.64 0 2.88-1.014 4.933-3.04 6.16-2.027 1.2-4.867 1.8-8.52 1.8h-8.32V1.36h7.24c7.626 0 11.44 2.347 11.44 7.04 0 1.627-.494 2.96-1.48 4-.987 1.013-2.2 1.667-3.64 1.96Zm-8.28-9.12v7.48h3.24c1.466 0 2.626-.32 3.48-.96.853-.667 1.28-1.64 1.28-2.92 0-1.333-.454-2.267-1.36-2.8-.88-.533-2.267-.8-4.16-.8h-2.48Zm3.08 19.8c1.946 0 3.426-.293 4.44-.88 1.04-.587 1.56-1.693 1.56-3.32 0-1.573-.494-2.707-1.48-3.4-.96-.693-2.28-1.04-3.96-1.04h-3.64v8.64h3.08Zm32.211-23.68-.56 3.92h-10.2V13h8.88v3.92h-8.88v8.12h10.92V29h-16.2V1.36h16.04Zm15.223-.6c1.68 0 3.147.24 4.4.72 1.254.48 2.48 1.213 3.68 2.2l-2.68 3.12c-1.626-1.307-3.333-1.96-5.12-1.96-2.053 0-3.706.827-4.96 2.48-1.226 1.653-1.84 4.253-1.84 7.8 0 3.467.614 6.04 1.84 7.72 1.227 1.68 2.88 2.52 4.96 2.52 1.094 0 2.067-.187 2.92-.56.854-.4 1.76-.96 2.72-1.68l2.48 3.12c-.933.96-2.12 1.76-3.56 2.4-1.413.64-3 .96-4.76.96-2.4 0-4.52-.56-6.36-1.68-1.84-1.12-3.266-2.76-4.28-4.92-1.013-2.187-1.52-4.813-1.52-7.88 0-3.013.52-5.6 1.56-7.76 1.067-2.16 2.507-3.8 4.32-4.92 1.84-1.12 3.907-1.68 6.2-1.68Zm29.544.6-.56 4.2h-7.2V29h-5.32V5.56h-7.44v-4.2h20.52ZM269.687 29h-5.24V17.24c0-3.413.253-6.893.76-10.44l-9.4 22.2h-6.52V1.36h5.24v11.88c0 2.213-.067 4.053-.2 5.52-.133 1.467-.32 3.067-.56 4.8l9.56-22.2h6.36V29Z" fill="url(#a)"/><defs><linearGradient id="a" x1="135.5" y1="-8" x2="135.5" y2="40" gradientUnits="userSpaceOnUse"><stop stop-color="#875F46"/><stop offset=".495" stop-color="#E6DC87"/><stop offset="1" stop-color="#A5804F"/></linearGradient></defs></svg>