<svg width="250" height="30" fill="none" xmlns="http://www.w3.org/2000/svg"><path d="M11.671.96c1.654 0 3.04.213 4.16.64 1.147.427 2.307 1.12 3.48 2.08l-2.08 2.44c-1.68-1.36-3.453-2.04-5.32-2.04-2.293 0-4.146.88-5.56 2.64-1.386 1.76-2.08 4.587-2.08 8.48 0 3.787.694 6.587 2.08 8.4 1.387 1.787 3.227 2.68 5.52 2.68 1.174 0 2.2-.2 3.08-.6.88-.4 1.814-.96 2.8-1.68l1.88 2.4c-.853.88-1.946 1.613-3.28 2.2-1.333.587-2.866.88-4.6.88-2.24 0-4.24-.547-6-1.64-1.733-1.12-3.093-2.747-4.08-4.88-.96-2.16-1.44-4.747-1.44-7.76s.507-5.587 1.52-7.72c1.014-2.16 2.387-3.787 4.12-4.88C7.605 1.507 9.538.96 11.671.96ZM43.734 29h-3.8V15.56c0-3.12.173-6.413.52-9.88L29.294 29h-4.88V1.44h3.8v13.44c0 3.733-.173 7.067-.52 10l11.28-23.44h4.76V29ZM70.08 1.44V29h-3.8V4.64h-8.64l-1.32 11.88c-.374 3.307-.814 5.787-1.32 7.44-.507 1.627-1.187 2.827-2.04 3.6-.854.747-2.107 1.387-3.76 1.92l-.92-2.96c1.013-.373 1.76-.853 2.24-1.44.506-.587.893-1.467 1.16-2.64.266-1.173.546-3.053.84-5.64l1.8-15.36h15.76ZM92.766 29l-2.08-6.92h-10.44L78.166 29h-3.84l8.84-27.56h4.8l8.8 27.56h-4Zm-11.6-10h8.6l-4.28-14.4-4.32 14.4Z" fill="#121212"/><path d="M119.002 1.36c3.546 0 6.293.733 8.24 2.2 1.973 1.467 2.96 3.667 2.96 6.6 0 3.067-.987 5.373-2.96 6.92-1.974 1.52-4.6 2.28-7.88 2.28h-3.24V29h-5.28V1.36h8.16Zm-.04 14.04c1.893 0 3.32-.387 4.28-1.16.96-.8 1.44-2.16 1.44-4.08 0-3.28-1.907-4.92-5.72-4.92h-2.84V15.4h2.84Zm27.77 13.6-1.72-6.4h-9.16l-1.72 6.4h-5.48l8.6-27.64h6.52l8.56 27.64h-5.6Zm-9.84-10.4h7.04l-3.52-13.2-3.52 13.2Zm24.64 11c-3.84 0-6.92-1.28-9.24-3.84l2.96-2.84c.853.853 1.76 1.493 2.72 1.92.96.427 2.04.64 3.24.64 1.653 0 2.933-.4 3.84-1.2.933-.8 1.4-1.92 1.4-3.36s-.467-2.547-1.4-3.32c-.907-.8-2.267-1.2-4.08-1.2h-2.76l.64-3.96h2.2c1.44 0 2.573-.347 3.4-1.04.827-.72 1.24-1.693 1.24-2.92 0-1.093-.333-1.987-1-2.68-.667-.693-1.693-1.04-3.08-1.04-2 0-3.987.8-5.96 2.4l-2.56-2.84c2.587-2.373 5.627-3.56 9.12-3.56 1.893 0 3.507.32 4.84.96 1.36.613 2.387 1.467 3.08 2.56.693 1.067 1.04 2.28 1.04 3.64 0 1.653-.507 3.027-1.52 4.12s-2.44 1.84-4.28 2.24c2 .213 3.613.907 4.84 2.08 1.227 1.147 1.84 2.733 1.84 4.76 0 1.68-.453 3.16-1.36 4.44-.88 1.28-2.12 2.28-3.72 3-1.573.693-3.387 1.04-5.44 1.04Zm26.074-8.48c-.773 2-1.626 3.573-2.56 4.72a8.993 8.993 0 0 1-3.28 2.56c-1.28.56-2.906.96-4.88 1.2l-.72-3.68c1.814-.293 3.174-.747 4.08-1.36.934-.613 1.707-1.613 2.32-3h-1.76l-8.68-20.2h5.48l6.52 17.12 5.76-17.12h5.4l-7.68 19.76ZM223.799 29h-5.16l-.72-11.56c-.24-4.133-.36-7.413-.36-9.84V6.16L212.519 26h-5l-5.36-19.88c.054 1.76.08 3.093.08 4 0 2.427-.08 4.92-.24 7.48l-.68 11.4h-5.12l2.2-27.64h6.8l4.92 19.36 4.64-19.36h6.88l2.16 27.64Zm19.729 0-1.72-6.4h-9.16l-1.72 6.4h-5.48l8.6-27.64h6.52l8.56 27.64h-5.6Zm-9.84-10.4h7.04l-3.52-13.2-3.52 13.2Z" fill="url(#a)"/><defs><linearGradient id="a" x1="123.5" y1="-8" x2="123.5" y2="40" gradientUnits="userSpaceOnUse"><stop stop-color="#875F46"/><stop offset=".495" stop-color="#E6DC87"/><stop offset="1" stop-color="#A5804F"/></linearGradient></defs></svg>