<svg width="221" height="30" fill="none" xmlns="http://www.w3.org/2000/svg"><path d="M11.964.96c1.654 0 3.04.213 4.16.64 1.147.427 2.307 1.12 3.48 2.08l-2.08 2.44c-1.68-1.36-3.453-2.04-5.32-2.04-2.293 0-4.146.88-5.56 2.64-1.386 1.76-2.08 4.587-2.08 8.48 0 3.787.694 6.587 2.08 8.4 1.387 1.787 3.227 2.68 5.52 2.68 1.174 0 2.2-.2 3.08-.6.88-.4 1.814-.96 2.8-1.68l1.88 2.4c-.853.88-1.946 1.613-3.28 2.2-1.333.587-2.866.88-4.6.88-2.24 0-4.24-.547-6-1.64-1.733-1.12-3.093-2.747-4.08-4.88-.96-2.16-1.44-4.747-1.44-7.76s.507-5.587 1.52-7.72c1.014-2.16 2.387-3.787 4.12-4.88C7.898 1.507 9.831.96 11.964.96ZM44.027 29h-3.8V15.56c0-3.12.173-6.413.52-9.88L29.587 29h-4.88V1.44h3.8v13.44c0 3.733-.173 7.067-.52 10l11.28-23.44h4.76V29ZM70.372 1.44V29h-3.8V4.64h-8.64l-1.32 11.88c-.374 3.307-.814 5.787-1.32 7.44-.507 1.627-1.187 2.827-2.04 3.6-.854.747-2.107 1.387-3.76 1.92l-.92-2.96c1.013-.373 1.76-.853 2.24-1.44.506-.587.893-1.467 1.16-2.64.266-1.173.546-3.053.84-5.64l1.8-15.36h15.76ZM93.059 29l-2.08-6.92h-10.44L78.459 29h-3.84l8.84-27.56h4.8l8.8 27.56h-4Zm-11.6-10h8.6l-4.28-14.4-4.32 14.4Z" fill="#121212"/><path d="M129.295 1.36V29h-5.32V18.36c-1.067.773-2.094 1.347-3.08 1.72-.987.347-2.134.52-3.44.52-2.587 0-4.627-.8-6.12-2.4-1.494-1.6-2.24-3.773-2.24-6.52V1.36h5.24v10.12c0 1.707.373 2.973 1.12 3.8.773.8 1.92 1.2 3.44 1.2 2.08 0 3.773-.627 5.08-1.88V1.36h5.32Zm22.528 0-.56 3.92h-10.2V13h8.88v3.92h-8.88v8.12h10.92V29h-16.2V1.36h16.04Zm15.223-.6c1.68 0 3.147.24 4.4.72 1.253.48 2.48 1.213 3.68 2.2l-2.68 3.12c-1.627-1.307-3.333-1.96-5.12-1.96-2.053 0-3.707.827-4.96 2.48-1.227 1.653-1.84 4.253-1.84 7.8 0 3.467.613 6.04 1.84 7.72 1.227 1.68 2.88 2.52 4.96 2.52 1.093 0 2.067-.187 2.92-.56.853-.4 1.76-.96 2.72-1.68l2.48 3.12c-.933.96-2.12 1.76-3.56 2.4-1.413.64-3 .96-4.76.96-2.4 0-4.52-.56-6.36-1.68-1.84-1.12-3.267-2.76-4.28-4.92-1.013-2.187-1.52-4.813-1.52-7.88 0-3.013.52-5.6 1.56-7.76 1.067-2.16 2.507-3.8 4.32-4.92 1.84-1.12 3.907-1.68 6.2-1.68Zm29.544.6-.56 4.2h-7.2V29h-5.32V5.56h-7.44v-4.2h20.52ZM220.441 29h-5.24V17.24c0-3.413.253-6.893.76-10.44l-9.4 22.2h-6.52V1.36h5.24v11.88c0 2.213-.067 4.053-.2 5.52-.134 1.467-.32 3.067-.56 4.8l9.56-22.2h6.36V29Z" fill="url(#a)"/><defs><linearGradient id="a" x1="111" y1="-8" x2="111" y2="40" gradientUnits="userSpaceOnUse"><stop stop-color="#875F46"/><stop offset=".495" stop-color="#E6DC87"/><stop offset="1" stop-color="#A5804F"/></linearGradient></defs></svg>