<svg width="49" height="49" viewBox="0 0 49 49" fill="none" xmlns="http://www.w3.org/2000/svg">
<mask id="mask0_583_229" style="mask-type:alpha" maskUnits="userSpaceOnUse" x="0" y="0" width="49" height="49">
<rect width="49" height="49" fill="#D9D9D9"/>
</mask>
<g mask="url(#mask0_583_229)">
<path d="M15.3128 33.6875H27.5628V31.6458H15.3128V33.6875ZM15.3128 25.5208H33.6878V23.4791H15.3128V25.5208ZM15.3128 17.3541H33.6878V15.3125H15.3128V17.3541ZM11.4847 40.8333C10.5319 40.8333 9.74112 40.5189 9.11228 39.89C8.48209 39.2598 8.16699 38.4684 8.16699 37.5156V11.4843C8.16699 10.5316 8.48209 9.74075 9.11228 9.11192C9.74112 8.48172 10.5319 8.16663 11.4847 8.16663H37.516C38.4687 8.16663 39.2602 8.48172 39.8904 9.11192C40.5192 9.74075 40.8337 10.5316 40.8337 11.4843V37.5156C40.8337 38.4684 40.5192 39.2598 39.8904 39.89C39.2602 40.5189 38.4687 40.8333 37.516 40.8333H11.4847ZM11.4847 38.7916H37.516C37.8562 38.7916 38.1536 38.6637 38.4082 38.4078C38.664 38.1533 38.792 37.8559 38.792 37.5156V11.4843C38.792 11.1441 38.664 10.8467 38.4082 10.5921C38.1536 10.3362 37.8562 10.2083 37.516 10.2083H11.4847C11.1444 10.2083 10.847 10.3362 10.5925 10.5921C10.3366 10.8467 10.2087 11.1441 10.2087 11.4843V37.5156C10.2087 37.8559 10.3366 38.1533 10.5925 38.4078C10.847 38.6637 11.1444 38.7916 11.4847 38.7916Z" fill="#1C1B1F"/>
</g>
</svg>
