<svg width="270" height="30" viewBox="0 0 270 30" fill="none" xmlns="http://www.w3.org/2000/svg">
<path d="M11.7181 0.959999C13.3715 0.959999 14.7581 1.17333 15.8781 1.6C17.0248 2.02667 18.1848 2.72 19.3581 3.68L17.2781 6.12C15.5981 4.76 13.8248 4.08 11.9581 4.08C9.66479 4.08 7.81146 4.96 6.39813 6.72C5.01146 8.48 4.31813 11.3067 4.31813 15.2C4.31813 18.9867 5.01146 21.7867 6.39813 23.6C7.78479 25.3867 9.62479 26.28 11.9181 26.28C13.0915 26.28 14.1181 26.08 14.9981 25.68C15.8781 25.28 16.8115 24.72 17.7981 24L19.6781 26.4C18.8248 27.28 17.7315 28.0133 16.3981 28.6C15.0648 29.1867 13.5315 29.48 11.7981 29.48C9.55813 29.48 7.55813 28.9333 5.79813 27.84C4.06479 26.72 2.70479 25.0933 1.71813 22.96C0.758125 20.8 0.278125 18.2133 0.278125 15.2C0.278125 12.1867 0.784792 9.61333 1.79813 7.48C2.81146 5.32 4.18479 3.69333 5.91813 2.6C7.65146 1.50667 9.58479 0.959999 11.7181 0.959999ZM43.7809 29H39.9809V15.56C39.9809 12.44 40.1543 9.14667 40.5009 5.68L29.3409 29H24.4609V1.44H28.2609V14.88C28.2609 18.6133 28.0876 21.9467 27.7409 24.88L39.0209 1.44H43.7809V29ZM70.1256 1.44V29H66.3256V4.64H57.6856L56.3656 16.52C55.9923 19.8267 55.5523 22.3067 55.0456 23.96C54.539 25.5867 53.859 26.7867 53.0056 27.56C52.1523 28.3067 50.899 28.9467 49.2456 29.48L48.3256 26.52C49.339 26.1467 50.0856 25.6667 50.5656 25.08C51.0723 24.4933 51.459 23.6133 51.7256 22.44C51.9923 21.2667 52.2723 19.3867 52.5656 16.8L54.3656 1.44H70.1256ZM92.8128 29L90.7328 22.08H80.2928L78.2128 29H74.3728L83.2128 1.44H88.0128L96.8128 29H92.8128ZM81.2128 19H89.8128L85.5328 4.6L81.2128 19Z" fill="#121212"/>
<path d="M121.448 0.759999C123.128 0.759999 124.595 0.999999 125.848 1.48C127.102 1.96 128.328 2.69333 129.528 3.68L126.848 6.8C125.222 5.49333 123.515 4.84 121.728 4.84C119.675 4.84 118.022 5.66667 116.768 7.32C115.542 8.97333 114.928 11.5733 114.928 15.12C114.928 18.5867 115.542 21.16 116.768 22.84C117.995 24.52 119.648 25.36 121.728 25.36C122.822 25.36 123.795 25.1733 124.648 24.8C125.502 24.4 126.408 23.84 127.368 23.12L129.848 26.24C128.915 27.2 127.728 28 126.288 28.64C124.875 29.28 123.288 29.6 121.528 29.6C119.128 29.6 117.008 29.04 115.168 27.92C113.328 26.8 111.902 25.16 110.888 23C109.875 20.8133 109.368 18.1867 109.368 15.12C109.368 12.1067 109.888 9.52 110.928 7.36C111.995 5.2 113.435 3.56 115.248 2.44C117.088 1.32 119.155 0.759999 121.448 0.759999ZM143.442 0.759999C145.922 0.759999 148.068 1.32 149.882 2.44C151.695 3.56 153.082 5.2 154.042 7.36C155.028 9.52 155.522 12.12 155.522 15.16C155.522 18.1733 155.028 20.76 154.042 22.92C153.055 25.08 151.655 26.7333 149.842 27.88C148.028 29.0267 145.895 29.6 143.442 29.6C140.962 29.6 138.815 29.04 137.002 27.92C135.188 26.8 133.788 25.16 132.802 23C131.815 20.84 131.322 18.24 131.322 15.2C131.322 12.2133 131.815 9.64 132.802 7.48C133.788 5.29333 135.188 3.62667 137.002 2.48C138.842 1.33333 140.988 0.759999 143.442 0.759999ZM143.442 4.8C141.308 4.8 139.682 5.64 138.562 7.32C137.442 8.97333 136.882 11.6 136.882 15.2C136.882 22.1067 139.068 25.56 143.442 25.56C145.575 25.56 147.188 24.7333 148.282 23.08C149.402 21.4267 149.962 18.7867 149.962 15.16C149.962 11.56 149.402 8.93333 148.282 7.28C147.188 5.62667 145.575 4.8 143.442 4.8ZM174.058 14.36C175.951 14.7067 177.471 15.3867 178.618 16.4C179.791 17.4133 180.378 18.96 180.378 21.04C180.378 23.92 179.364 25.9733 177.338 27.2C175.311 28.4 172.471 29 168.818 29H160.498V1.36H167.738C175.364 1.36 179.178 3.70666 179.178 8.4C179.178 10.0267 178.684 11.36 177.698 12.4C176.711 13.4133 175.498 14.0667 174.058 14.36ZM165.778 5.24V12.72H169.018C170.484 12.72 171.644 12.4 172.498 11.76C173.351 11.0933 173.778 10.12 173.778 8.84C173.778 7.50667 173.324 6.57333 172.418 6.04C171.538 5.50667 170.151 5.24 168.258 5.24H165.778ZM168.858 25.04C170.804 25.04 172.284 24.7467 173.298 24.16C174.338 23.5733 174.858 22.4667 174.858 20.84C174.858 19.2667 174.364 18.1333 173.378 17.44C172.418 16.7467 171.098 16.4 169.418 16.4H165.778V25.04H168.858ZM201.069 1.36L200.509 5.28H190.309V13H199.189V16.92H190.309V25.04H201.229V29H185.029V1.36H201.069ZM216.292 0.759999C217.972 0.759999 219.439 0.999999 220.692 1.48C221.946 1.96 223.172 2.69333 224.372 3.68L221.692 6.8C220.066 5.49333 218.359 4.84 216.572 4.84C214.519 4.84 212.866 5.66667 211.612 7.32C210.386 8.97333 209.772 11.5733 209.772 15.12C209.772 18.5867 210.386 21.16 211.612 22.84C212.839 24.52 214.492 25.36 216.572 25.36C217.666 25.36 218.639 25.1733 219.492 24.8C220.346 24.4 221.252 23.84 222.212 23.12L224.692 26.24C223.759 27.2 222.572 28 221.132 28.64C219.719 29.28 218.132 29.6 216.372 29.6C213.972 29.6 211.852 29.04 210.012 27.92C208.172 26.8 206.746 25.16 205.732 23C204.719 20.8133 204.212 18.1867 204.212 15.12C204.212 12.1067 204.732 9.52 205.772 7.36C206.839 5.2 208.279 3.56 210.092 2.44C211.932 1.32 213.999 0.759999 216.292 0.759999ZM245.836 1.36L245.276 5.56H238.076V29H232.756V5.56H225.316V1.36H245.836ZM269.687 29H264.447V17.24C264.447 13.8267 264.7 10.3467 265.207 6.8L255.807 29H249.287V1.36H254.527V13.24C254.527 15.4533 254.46 17.2933 254.327 18.76C254.194 20.2267 254.007 21.8267 253.767 23.56L263.327 1.36H269.687V29Z" fill="url(#paint0_linear_198_643)"/>
<defs>
<linearGradient id="paint0_linear_198_643" x1="135.5" y1="-8" x2="135.5" y2="40" gradientUnits="userSpaceOnUse">
<stop stop-color="#875F46"/>
<stop offset="0.494792" stop-color="#E6DC87"/>
<stop offset="1" stop-color="#A5804F"/>
</linearGradient>
</defs>
</svg>
