<svg width="250" height="30" viewBox="0 0 250 30" fill="none" xmlns="http://www.w3.org/2000/svg">
<path d="M11.6713 0.959999C13.3246 0.959999 14.7113 1.17333 15.8313 1.6C16.9779 2.02667 18.1379 2.72 19.3113 3.68L17.2313 6.12C15.5513 4.76 13.7779 4.08 11.9113 4.08C9.61792 4.08 7.76458 4.96 6.35125 6.72C4.96458 8.48 4.27125 11.3067 4.27125 15.2C4.27125 18.9867 4.96458 21.7867 6.35125 23.6C7.73792 25.3867 9.57792 26.28 11.8713 26.28C13.0446 26.28 14.0713 26.08 14.9513 25.68C15.8313 25.28 16.7646 24.72 17.7513 24L19.6313 26.4C18.7779 27.28 17.6846 28.0133 16.3513 28.6C15.0179 29.1867 13.4846 29.48 11.7513 29.48C9.51125 29.48 7.51125 28.9333 5.75125 27.84C4.01792 26.72 2.65792 25.0933 1.67125 22.96C0.71125 20.8 0.23125 18.2133 0.23125 15.2C0.23125 12.1867 0.737917 9.61333 1.75125 7.48C2.76458 5.32 4.13792 3.69333 5.87125 2.6C7.60458 1.50667 9.53792 0.959999 11.6713 0.959999ZM43.7341 29H39.9341V15.56C39.9341 12.44 40.1074 9.14667 40.4541 5.68L29.2941 29H24.4141V1.44H28.2141V14.88C28.2141 18.6133 28.0407 21.9467 27.6941 24.88L38.9741 1.44H43.7341V29ZM70.0788 1.44V29H66.2788V4.64H57.6388L56.3188 16.52C55.9454 19.8267 55.5054 22.3067 54.9988 23.96C54.4921 25.5867 53.8121 26.7867 52.9588 27.56C52.1054 28.3067 50.8521 28.9467 49.1988 29.48L48.2788 26.52C49.2921 26.1467 50.0388 25.6667 50.5188 25.08C51.0254 24.4933 51.4121 23.6133 51.6788 22.44C51.9454 21.2667 52.2254 19.3867 52.5188 16.8L54.3188 1.44H70.0788ZM92.7659 29L90.6859 22.08H80.2459L78.1659 29H74.3259L83.1659 1.44H87.9659L96.7659 29H92.7659ZM81.1659 19H89.7659L85.4859 4.6L81.1659 19Z" fill="#121212"/>
<path d="M119.002 1.36C122.548 1.36 125.295 2.09333 127.242 3.56C129.215 5.02667 130.202 7.22667 130.202 10.16C130.202 13.2267 129.215 15.5333 127.242 17.08C125.268 18.6 122.642 19.36 119.362 19.36H116.122V29H110.842V1.36H119.002ZM118.962 15.4C120.855 15.4 122.282 15.0133 123.242 14.24C124.202 13.44 124.682 12.08 124.682 10.16C124.682 6.88 122.775 5.24 118.962 5.24H116.122V15.4H118.962ZM146.732 29L145.012 22.6H135.852L134.132 29H128.652L137.252 1.36H143.772L152.332 29H146.732ZM136.892 18.6H143.932L140.412 5.4L136.892 18.6ZM161.532 29.6C157.692 29.6 154.612 28.32 152.292 25.76L155.252 22.92C156.105 23.7733 157.012 24.4133 157.972 24.84C158.932 25.2667 160.012 25.48 161.212 25.48C162.865 25.48 164.145 25.08 165.052 24.28C165.985 23.48 166.452 22.36 166.452 20.92C166.452 19.48 165.985 18.3733 165.052 17.6C164.145 16.8 162.785 16.4 160.972 16.4H158.212L158.852 12.44H161.052C162.492 12.44 163.625 12.0933 164.452 11.4C165.279 10.68 165.692 9.70667 165.692 8.48C165.692 7.38667 165.359 6.49333 164.692 5.8C164.025 5.10667 162.999 4.76 161.612 4.76C159.612 4.76 157.625 5.56 155.652 7.16L153.092 4.32C155.679 1.94667 158.719 0.759999 162.212 0.759999C164.105 0.759999 165.719 1.08 167.052 1.72C168.412 2.33333 169.439 3.18667 170.132 4.28C170.825 5.34667 171.172 6.56 171.172 7.92C171.172 9.57333 170.665 10.9467 169.652 12.04C168.639 13.1333 167.212 13.88 165.372 14.28C167.372 14.4933 168.985 15.1867 170.212 16.36C171.439 17.5067 172.052 19.0933 172.052 21.12C172.052 22.8 171.599 24.28 170.692 25.56C169.812 26.84 168.572 27.84 166.972 28.56C165.399 29.2533 163.585 29.6 161.532 29.6ZM187.606 21.12C186.833 23.12 185.98 24.6933 185.046 25.84C184.14 26.96 183.046 27.8133 181.766 28.4C180.486 28.96 178.86 29.36 176.886 29.6L176.166 25.92C177.98 25.6267 179.34 25.1733 180.246 24.56C181.18 23.9467 181.953 22.9467 182.566 21.56H180.806L172.126 1.36H177.606L184.126 18.48L189.886 1.36H195.286L187.606 21.12ZM223.799 29H218.639L217.919 17.44C217.679 13.3067 217.559 10.0267 217.559 7.6V6.16L212.519 26H207.519L202.159 6.12C202.213 7.88 202.239 9.21333 202.239 10.12C202.239 12.5467 202.159 15.04 201.999 17.6L201.319 29H196.199L198.399 1.36H205.199L210.119 20.72L214.759 1.36H221.639L223.799 29ZM243.528 29L241.808 22.6H232.648L230.928 29H225.448L234.048 1.36H240.568L249.128 29H243.528ZM233.688 18.6H240.728L237.208 5.4L233.688 18.6Z" fill="url(#paint0_linear_198_691)"/>
<defs>
<linearGradient id="paint0_linear_198_691" x1="123.5" y1="-8" x2="123.5" y2="40" gradientUnits="userSpaceOnUse">
<stop stop-color="#875F46"/>
<stop offset="0.494792" stop-color="#E6DC87"/>
<stop offset="1" stop-color="#A5804F"/>
</linearGradient>
</defs>
</svg>
