<svg width="243" height="30" viewBox="0 0 243 30" fill="none" xmlns="http://www.w3.org/2000/svg">
<path d="M11.9095 0.959999C13.5629 0.959999 14.9495 1.17333 16.0695 1.6C17.2162 2.02667 18.3762 2.72 19.5495 3.68L17.4695 6.12C15.7895 4.76 14.0162 4.08 12.1495 4.08C9.8562 4.08 8.00286 4.96 6.58953 6.72C5.20286 8.48 4.50953 11.3067 4.50953 15.2C4.50953 18.9867 5.20286 21.7867 6.58953 23.6C7.9762 25.3867 9.8162 26.28 12.1095 26.28C13.2829 26.28 14.3095 26.08 15.1895 25.68C16.0695 25.28 17.0029 24.72 17.9895 24L19.8695 26.4C19.0162 27.28 17.9229 28.0133 16.5895 28.6C15.2562 29.1867 13.7229 29.48 11.9895 29.48C9.74953 29.48 7.74953 28.9333 5.98953 27.84C4.2562 26.72 2.8962 25.0933 1.90953 22.96C0.949531 20.8 0.469531 18.2133 0.469531 15.2C0.469531 12.1867 0.976198 9.61333 1.98953 7.48C3.00286 5.32 4.3762 3.69333 6.10953 2.6C7.84286 1.50667 9.7762 0.959999 11.9095 0.959999ZM43.9723 29H40.1723V15.56C40.1723 12.44 40.3457 9.14667 40.6923 5.68L29.5323 29H24.6523V1.44H28.4523V14.88C28.4523 18.6133 28.279 21.9467 27.9323 24.88L39.2123 1.44H43.9723V29ZM70.317 1.44V29H66.517V4.64H57.877L56.557 16.52C56.1837 19.8267 55.7437 22.3067 55.237 23.96C54.7304 25.5867 54.0504 26.7867 53.197 27.56C52.3437 28.3067 51.0904 28.9467 49.437 29.48L48.517 26.52C49.5304 26.1467 50.277 25.6667 50.757 25.08C51.2637 24.4933 51.6504 23.6133 51.917 22.44C52.1837 21.2667 52.4637 19.3867 52.757 16.8L54.557 1.44H70.317ZM93.0042 29L90.9242 22.08H80.4842L78.4042 29H74.5642L83.4042 1.44H88.2042L97.0042 29H93.0042ZM81.4042 19H90.0042L85.7242 4.6L81.4042 19Z" fill="#121212"/>
<path d="M130.88 1.36V29H125.6V5.52H118.56L117.36 16.04C116.987 19.2933 116.52 21.8 115.96 23.56C115.427 25.2933 114.653 26.6133 113.64 27.52C112.653 28.4267 111.24 29.12 109.4 29.6L108.16 25.72C109.147 25.3467 109.88 24.8533 110.36 24.24C110.84 23.6 111.2 22.7067 111.44 21.56C111.707 20.3867 111.987 18.5333 112.28 16L114 1.36H130.88ZM157.369 0.759999C161.049 0.759999 163.916 2.01333 165.969 4.52C168.049 7.02667 169.089 10.5733 169.089 15.16C169.089 18.1733 168.622 20.76 167.689 22.92C166.756 25.08 165.409 26.7333 163.649 27.88C161.889 29.0267 159.796 29.6 157.369 29.6C153.956 29.6 151.249 28.4933 149.249 26.28C147.276 24.04 146.142 20.88 145.849 16.8H142.649V29H137.369V1.36H142.649V12.56H145.969C146.422 8.77333 147.622 5.86667 149.569 3.84C151.542 1.78667 154.142 0.759999 157.369 0.759999ZM157.369 25.56C159.369 25.56 160.889 24.7333 161.929 23.08C162.969 21.4267 163.489 18.7867 163.489 15.16C163.489 11.56 162.969 8.93333 161.929 7.28C160.916 5.62667 159.396 4.8 157.369 4.8C155.369 4.8 153.849 5.64 152.809 7.32C151.769 9 151.249 11.6667 151.249 15.32C151.249 22.1467 153.289 25.56 157.369 25.56ZM182.609 11.44C186.049 11.44 188.702 12.16 190.569 13.6C192.462 15.04 193.409 17.1733 193.409 20C193.409 23.04 192.435 25.3067 190.489 26.8C188.542 28.2667 185.915 29 182.609 29H174.049V1.36H190.289L189.729 5.48H179.329V11.44H182.609ZM182.449 25.04C184.182 25.04 185.515 24.6667 186.449 23.92C187.382 23.1467 187.849 21.8667 187.849 20.08C187.849 18.4267 187.382 17.2133 186.449 16.44C185.542 15.6667 184.169 15.28 182.329 15.28H179.329V25.04H182.449ZM211.124 14.36C213.018 14.7067 214.538 15.3867 215.684 16.4C216.858 17.4133 217.444 18.96 217.444 21.04C217.444 23.92 216.431 25.9733 214.404 27.2C212.378 28.4 209.538 29 205.884 29H197.564V1.36H204.804C212.431 1.36 216.244 3.70666 216.244 8.4C216.244 10.0267 215.751 11.36 214.764 12.4C213.778 13.4133 212.564 14.0667 211.124 14.36ZM202.844 5.24V12.72H206.084C207.551 12.72 208.711 12.4 209.564 11.76C210.418 11.0933 210.844 10.12 210.844 8.84C210.844 7.50667 210.391 6.57333 209.484 6.04C208.604 5.50667 207.218 5.24 205.324 5.24H202.844ZM205.924 25.04C207.871 25.04 209.351 24.7467 210.364 24.16C211.404 23.5733 211.924 22.4667 211.924 20.84C211.924 19.2667 211.431 18.1333 210.444 17.44C209.484 16.7467 208.164 16.4 206.484 16.4H202.844V25.04H205.924ZM242.495 29H237.255V17.24C237.255 13.8267 237.509 10.3467 238.015 6.8L228.615 29H222.095V1.36H227.335V13.24C227.335 15.4533 227.269 17.2933 227.135 18.76C227.002 20.2267 226.815 21.8267 226.575 23.56L236.135 1.36H242.495V29Z" fill="url(#paint0_linear_198_754)"/>
<defs>
<linearGradient id="paint0_linear_198_754" x1="122" y1="-8" x2="122" y2="40" gradientUnits="userSpaceOnUse">
<stop stop-color="#875F46"/>
<stop offset="0.494792" stop-color="#E6DC87"/>
<stop offset="1" stop-color="#A5804F"/>
</linearGradient>
</defs>
</svg>
