<svg width="221" height="30" viewBox="0 0 221 30" fill="none" xmlns="http://www.w3.org/2000/svg">
<path d="M11.9642 0.959999C13.6176 0.959999 15.0042 1.17333 16.1242 1.6C17.2709 2.02667 18.4309 2.72 19.6042 3.68L17.5242 6.12C15.8442 4.76 14.0709 4.08 12.2042 4.08C9.91089 4.08 8.05755 4.96 6.64422 6.72C5.25755 8.48 4.56422 11.3067 4.56422 15.2C4.56422 18.9867 5.25755 21.7867 6.64422 23.6C8.03089 25.3867 9.87089 26.28 12.1642 26.28C13.3376 26.28 14.3642 26.08 15.2442 25.68C16.1242 25.28 17.0576 24.72 18.0442 24L19.9242 26.4C19.0709 27.28 17.9776 28.0133 16.6442 28.6C15.3109 29.1867 13.7776 29.48 12.0442 29.48C9.80422 29.48 7.80422 28.9333 6.04422 27.84C4.31089 26.72 2.95089 25.0933 1.96422 22.96C1.00422 20.8 0.524219 18.2133 0.524219 15.2C0.524219 12.1867 1.03089 9.61333 2.04422 7.48C3.05755 5.32 4.43089 3.69333 6.16422 2.6C7.89755 1.50667 9.83089 0.959999 11.9642 0.959999ZM44.027 29H40.227V15.56C40.227 12.44 40.4004 9.14667 40.747 5.68L29.587 29H24.707V1.44H28.507V14.88C28.507 18.6133 28.3337 21.9467 27.987 24.88L39.267 1.44H44.027V29ZM70.3717 1.44V29H66.5717V4.64H57.9317L56.6117 16.52C56.2384 19.8267 55.7984 22.3067 55.2917 23.96C54.7851 25.5867 54.1051 26.7867 53.2517 27.56C52.3984 28.3067 51.1451 28.9467 49.4917 29.48L48.5717 26.52C49.5851 26.1467 50.3317 25.6667 50.8117 25.08C51.3184 24.4933 51.7051 23.6133 51.9717 22.44C52.2384 21.2667 52.5184 19.3867 52.8117 16.8L54.6117 1.44H70.3717ZM93.0589 29L90.9789 22.08H80.5389L78.4589 29H74.6189L83.4589 1.44H88.2589L97.0589 29H93.0589ZM81.4589 19H90.0589L85.7789 4.6L81.4589 19Z" fill="#121212"/>
<path d="M129.295 1.36V29H123.975V18.36C122.908 19.1333 121.881 19.7067 120.895 20.08C119.908 20.4267 118.761 20.6 117.455 20.6C114.868 20.6 112.828 19.8 111.335 18.2C109.841 16.6 109.095 14.4267 109.095 11.68V1.36H114.335V11.48C114.335 13.1867 114.708 14.4533 115.455 15.28C116.228 16.08 117.375 16.48 118.895 16.48C120.975 16.48 122.668 15.8533 123.975 14.6V1.36H129.295ZM151.823 1.36L151.263 5.28H141.063V13H149.943V16.92H141.063V25.04H151.983V29H135.783V1.36H151.823ZM167.046 0.759999C168.726 0.759999 170.193 0.999999 171.446 1.48C172.699 1.96 173.926 2.69333 175.126 3.68L172.446 6.8C170.819 5.49333 169.113 4.84 167.326 4.84C165.273 4.84 163.619 5.66667 162.366 7.32C161.139 8.97333 160.526 11.5733 160.526 15.12C160.526 18.5867 161.139 21.16 162.366 22.84C163.593 24.52 165.246 25.36 167.326 25.36C168.419 25.36 169.393 25.1733 170.246 24.8C171.099 24.4 172.006 23.84 172.966 23.12L175.446 26.24C174.513 27.2 173.326 28 171.886 28.64C170.473 29.28 168.886 29.6 167.126 29.6C164.726 29.6 162.606 29.04 160.766 27.92C158.926 26.8 157.499 25.16 156.486 23C155.473 20.8133 154.966 18.1867 154.966 15.12C154.966 12.1067 155.486 9.52 156.526 7.36C157.593 5.2 159.033 3.56 160.846 2.44C162.686 1.32 164.753 0.759999 167.046 0.759999ZM196.59 1.36L196.03 5.56H188.83V29H183.51V5.56H176.07V1.36H196.59ZM220.441 29H215.201V17.24C215.201 13.8267 215.454 10.3467 215.961 6.8L206.561 29H200.041V1.36H205.281V13.24C205.281 15.4533 205.214 17.2933 205.081 18.76C204.947 20.2267 204.761 21.8267 204.521 23.56L214.081 1.36H220.441V29Z" fill="url(#paint0_linear_198_739)"/>
<defs>
<linearGradient id="paint0_linear_198_739" x1="111" y1="-8" x2="111" y2="40" gradientUnits="userSpaceOnUse">
<stop stop-color="#875F46"/>
<stop offset="0.494792" stop-color="#E6DC87"/>
<stop offset="1" stop-color="#A5804F"/>
</linearGradient>
</defs>
</svg>
